<svg viewBox="0 0 96 96" xmlns="http://www.w3.org/2000/svg" xmlns:xlink="http://www.w3.org/1999/xlink" id="Icons_Pen" overflow="hidden"><path d="M88.44 18.161 87.146 16.867 89.154 14.767C90.209 13.576 90.466 11.167 87.716 8.316 84.937 5.535 82.08 5.8 81.031 6.852L50.637 35.221 60.337 44.921 84.382 19.759 85.612 20.989C86.0871 21.4152 86.1317 22.1441 85.712 22.625L67.378 40.961C66.5835 41.7284 66.5615 42.9945 67.3288 43.789 68.0962 44.5835 69.3623 44.6055 70.1568 43.8382 70.1735 43.8221 70.1899 43.8057 70.206 43.789L88.543 25.453C90.5247 23.4095 90.4786 20.1477 88.44 18.161Z"/><path d="M28.068 58.519C27.3087 59.297 26.5753 60.1 25.868 60.928L17.2 70.715 24.838 78.354 34.625 69.68C35.453 68.976 36.2563 68.2427 37.035 67.48L57.293 47.97 47.583 38.26Z"/><path d="M7.284 83.553C7.00231 84.057 7.10876 84.6891 7.54 85.073L5.257 88.787C4.9499 89.2899 5.10866 89.9466 5.6116 90.2537 5.77597 90.3541 5.96443 90.4081 6.157 90.41 6.35864 90.4092 6.55592 90.3513 6.726 90.243L10.403 87.933C10.7838 88.3548 11.4042 88.4603 11.903 88.188L21.403 81.046 14.488 74.132Z"/></svg>